<?xml version="1.0" standalone="no"?>
<!DOCTYPE svg PUBLIC "-//W3C//DTD SVG 20010904//EN"
 "http://www.w3.org/TR/2001/REC-SVG-20010904/DTD/svg10.dtd">
<svg version="1.0" xmlns="http://www.w3.org/2000/svg"
 width="1042.000000pt" height="1042.000000pt" viewBox="0 0 1042.000000 1042.000000"
 preserveAspectRatio="xMidYMid meet">
<metadata>
Created by potrace 1.11, written by Peter Selinger 2001-2013
</metadata>
<g transform="translate(0.000000,1042.000000) scale(0.100000,-0.100000)"
fill="#000000" stroke="none">
<path d="M4880 10414 c-331 -29 -557 -61 -797 -114 -1209 -268 -2284 -959
-3035 -1953 -508 -672 -845 -1460 -982 -2295 -50 -306 -61 -451 -61 -842 0
-391 11 -536 61 -842 216 -1322 933 -2508 2004 -3318 675 -510 1462 -847 2298
-984 306 -50 451 -61 842 -61 391 0 536 11 842 61 1324 217 2508 933 3320
2007 508 672 845 1460 982 2295 50 306 61 451 61 842 0 391 -11 536 -61 842
-234 1428 -1049 2691 -2254 3495 -709 472 -1483 752 -2350 849 -137 15 -754
28 -870 18z m682 -35 c528 -36 1049 -153 1538 -344 984 -385 1836 -1073 2427
-1960 1097 -1648 1154 -3795 145 -5500 -328 -553 -777 -1063 -1289 -1462 -132
-102 -389 -277 -538 -365 -1624 -959 -3646 -959 -5270 0 -903 533 -1650 1364
-2080 2312 -701 1544 -606 3330 253 4785 438 742 1082 1386 1827 1827 682 403
1474 651 2260 707 176 12 551 13 727 0z"/>
<path d="M5820 7565 c-7 -8 -18 -15 -26 -15 -7 0 -18 -9 -25 -21 -12 -24 3
-103 26 -129 15 -17 55 -168 54 -202 0 -15 -3 -18 -6 -8 -3 8 -14 23 -24 33
-11 10 -19 29 -19 42 0 13 -5 27 -11 31 -6 3 -17 22 -25 41 -8 18 -21 36 -29
40 -8 3 -15 14 -15 25 0 11 -8 22 -19 25 -11 3 -21 17 -24 33 -7 33 -73 78
-90 61 -6 -6 -19 -11 -29 -11 -38 0 -51 -77 -19 -109 10 -10 22 -28 25 -39 4
-11 15 -27 26 -37 11 -10 20 -26 20 -35 0 -10 9 -29 21 -44 11 -14 19 -36 17
-48 -3 -21 -10 -23 -74 -28 -39 -3 -78 -11 -87 -18 -13 -11 -15 -2 -19 83 -2
74 -7 99 -19 108 -9 7 -18 29 -22 51 -3 21 -12 46 -20 55 -8 9 -18 29 -21 46
-10 42 -24 55 -58 55 -19 0 -40 -11 -64 -35 l-34 -35 16 -37 c16 -36 38 -248
27 -265 -2 -5 -15 -8 -28 -8 -18 0 -25 7 -30 33 -4 17 -13 39 -20 47 -7 8 -15
37 -18 64 -3 29 -12 55 -21 61 -9 7 -16 21 -16 31 0 20 -43 88 -75 121 -31 31
-83 41 -139 27 -26 -7 -49 -14 -50 -16 0 -2 -11 -17 -23 -34 l-21 -30 39 -42
c36 -40 37 -42 15 -42 -13 0 -34 -8 -47 -18 -32 -26 -32 -102 0 -136 29 -31
24 -61 -9 -61 -19 0 -26 7 -31 30 -3 17 -14 44 -23 60 -9 17 -16 40 -16 51 0
12 -9 33 -20 47 -11 14 -20 32 -20 41 0 9 -9 21 -20 28 -11 7 -20 16 -20 21 0
10 -46 57 -56 57 -4 0 -17 9 -28 19 -12 10 -43 24 -71 29 -42 9 -53 8 -67 -5
-10 -9 -18 -22 -18 -30 0 -7 -6 -23 -12 -34 -10 -17 -10 -23 0 -26 6 -3 12
-11 12 -18 0 -8 29 -43 65 -78 36 -36 65 -69 65 -75 0 -5 6 -15 14 -21 8 -6
19 -31 25 -55 6 -24 17 -49 26 -56 10 -8 15 -30 15 -61 0 -52 -2 -54 -29 -40
-26 14 -160 -11 -176 -32 -7 -9 -19 -17 -28 -17 -31 0 -126 -99 -141 -146 -13
-41 -106 -36 -106 5 0 10 -6 24 -14 30 -8 6 -17 32 -21 57 -3 25 -13 48 -20
50 -8 3 -17 18 -20 34 -6 26 -180 220 -198 220 -4 0 -15 7 -24 16 -34 30 -95
65 -124 71 -15 3 -30 11 -33 18 -3 8 -30 17 -63 21 -32 4 -69 14 -83 23 -36
24 -449 24 -476 0 -11 -9 -34 -19 -52 -23 -19 -3 -45 -15 -59 -26 -14 -11 -31
-20 -39 -20 -20 0 -148 -132 -164 -170 -8 -19 -22 -42 -32 -52 -10 -10 -18
-27 -18 -38 0 -10 -7 -23 -15 -28 -9 -4 -18 -26 -22 -48 -3 -21 -13 -44 -21
-50 -8 -6 -17 -34 -20 -65 -3 -29 -13 -67 -23 -84 -13 -21 -19 -50 -19 -95 -1
-36 -8 -83 -16 -105 -9 -23 -19 -98 -24 -175 -5 -74 -13 -193 -18 -265 -10
-147 -10 -353 1 -435 5 -39 5 -49 -2 -32 -6 12 -19 22 -29 22 -10 0 -27 9 -37
20 -10 11 -25 20 -32 20 -8 0 -26 9 -40 20 -14 11 -33 20 -43 20 -10 0 -30 10
-46 23 -27 21 -37 22 -189 21 -145 0 -164 -3 -200 -22 -22 -12 -53 -22 -68
-22 -16 0 -40 -9 -54 -20 -14 -11 -34 -20 -44 -20 -10 0 -24 -9 -31 -20 -7
-11 -18 -20 -24 -20 -16 0 -104 -88 -104 -104 0 -9 -8 -20 -19 -25 -10 -6 -21
-25 -25 -42 -3 -18 -14 -41 -23 -51 -35 -39 -29 -376 8 -419 10 -12 19 -33 19
-46 0 -13 9 -31 20 -40 11 -10 20 -24 20 -31 0 -21 53 -101 66 -102 7 0 14 -9
17 -20 3 -11 12 -20 20 -20 9 0 19 -9 22 -20 3 -11 13 -20 21 -20 8 0 17 -7
20 -15 5 -12 35 -35 98 -72 10 -6 23 -19 28 -27 5 -9 13 -16 18 -16 5 0 19
-10 32 -23 13 -12 36 -33 53 -45 l29 -23 -29 -24 c-46 -36 -72 -38 -84 -4 -5
16 -15 29 -20 29 -6 0 -11 9 -11 20 0 18 -13 34 -52 66 -33 27 -61 34 -126 34
-54 0 -75 -4 -95 -20 -25 -20 -77 -28 -77 -12 0 18 -54 32 -120 32 -55 0 -73
-4 -87 -19 -11 -12 -37 -20 -70 -23 -39 -4 -59 -12 -82 -34 -17 -16 -31 -33
-31 -37 0 -5 -9 -20 -20 -34 -16 -21 -20 -41 -20 -109 0 -72 3 -87 20 -101 23
-20 27 -63 6 -63 -17 0 -76 -54 -76 -69 0 -6 -4 -11 -10 -11 -6 0 -10 -42 -10
-107 0 -104 1 -109 28 -135 48 -48 89 -78 109 -78 10 0 35 -9 56 -20 22 -12
56 -20 86 -20 41 0 51 -4 65 -25 9 -13 16 -35 16 -48 0 -24 57 -97 76 -97 5 0
17 -9 27 -20 15 -17 29 -20 111 -20 78 0 97 3 119 20 14 11 29 20 34 20 16 0
72 76 79 106 3 16 13 46 22 67 13 31 21 37 46 37 17 0 45 9 61 20 17 11 38 20
47 20 10 0 23 9 30 20 7 11 18 20 25 20 14 0 63 57 63 75 0 7 7 26 15 41 19
36 19 88 1 103 -7 6 -16 30 -19 53 -3 23 -12 47 -19 53 -7 5 -19 23 -26 38 -6
15 -19 30 -27 33 -21 8 -20 64 1 64 14 0 48 23 95 64 10 8 31 17 47 21 17 3
36 13 43 21 13 16 60 19 76 3 19 -19 117 -23 154 -6 19 9 49 19 67 22 18 4 36
14 39 22 3 8 16 19 29 24 13 4 24 15 24 24 0 18 11 19 32 3 9 -8 18 -35 21
-62 3 -30 11 -52 21 -58 9 -5 16 -18 16 -28 0 -23 59 -140 71 -140 4 0 10 -14
14 -31 4 -17 14 -33 22 -36 8 -3 19 -16 24 -29 4 -13 15 -24 24 -24 8 0 15 -7
15 -15 0 -16 92 -115 107 -115 5 0 14 -9 21 -20 7 -11 19 -20 27 -20 8 0 15
-6 15 -14 0 -8 9 -18 21 -21 12 -4 30 -16 40 -26 10 -10 26 -19 34 -19 8 0 24
-9 35 -20 11 -11 31 -20 43 -20 13 0 32 -8 41 -19 9 -10 35 -21 57 -24 22 -3
48 -12 57 -20 9 -8 47 -18 85 -22 37 -3 81 -14 98 -22 45 -23 444 -22 510 1
26 9 86 20 134 25 48 5 91 14 95 21 4 6 32 15 63 19 31 4 65 15 75 24 10 9 31
17 45 17 15 0 35 9 44 20 10 11 28 20 40 20 13 0 31 8 42 19 10 10 31 21 46
25 16 4 34 13 39 21 6 7 21 16 34 20 19 5 22 3 22 -18 0 -13 -7 -44 -15 -68
-9 -24 -18 -76 -22 -117 -3 -41 -14 -90 -25 -110 -10 -20 -18 -51 -18 -70 0
-19 -9 -45 -20 -59 -12 -16 -20 -41 -20 -64 0 -21 -8 -53 -19 -71 -10 -18 -21
-55 -24 -83 -3 -27 -13 -63 -21 -80 -13 -24 -16 -64 -16 -193 0 -143 2 -168
20 -202 11 -22 20 -51 20 -66 0 -14 9 -37 20 -51 11 -14 20 -34 20 -45 0 -10
7 -21 16 -25 8 -3 20 -16 25 -29 4 -13 15 -24 24 -24 8 0 15 -7 15 -15 0 -9 8
-19 18 -22 9 -4 23 -15 30 -25 7 -10 19 -18 26 -18 7 0 24 -9 37 -19 46 -36
249 -40 283 -6 7 7 30 17 51 21 21 4 54 17 73 30 19 13 39 24 43 24 5 0 9 6 9
14 0 7 9 16 20 19 11 3 20 12 20 20 0 9 9 19 20 22 11 3 20 12 20 19 0 7 11
27 25 46 14 19 25 44 25 57 0 13 4 23 8 23 13 0 32 48 32 81 0 17 9 42 20 56
13 16 20 41 20 67 0 23 9 67 20 99 11 31 21 69 22 84 1 16 4 -83 7 -218 5
-211 8 -250 23 -265 9 -11 20 -31 23 -47 4 -15 15 -33 24 -40 10 -6 20 -20 24
-29 3 -10 13 -18 22 -18 8 0 15 -7 15 -15 0 -8 15 -22 33 -30 17 -9 43 -22 57
-30 14 -8 36 -15 49 -15 13 0 30 -8 37 -17 11 -16 30 -18 136 -18 113 0 126 2
152 23 16 12 35 22 43 22 7 0 16 7 19 15 3 8 14 17 25 20 10 4 19 13 19 20 0
8 9 19 20 25 11 6 20 16 20 23 0 7 8 24 18 37 9 14 22 56 28 95 l11 70 2 -63
c1 -41 8 -76 21 -102 11 -22 20 -59 20 -83 0 -34 6 -52 28 -77 l29 -33 120 5
c86 3 127 8 144 20 27 17 146 27 326 28 102 0 114 2 139 23 19 17 27 34 29 63
1 21 3 47 4 57 1 11 9 17 26 17 14 0 33 8 43 18 10 10 26 21 35 25 9 3 17 13
17 20 0 8 10 21 23 30 21 14 22 21 22 129 -1 97 -4 120 -20 144 -18 26 -20 50
-23 273 -3 174 -1 241 7 237 6 -4 11 -14 11 -22 0 -8 5 -14 11 -14 7 0 22 -11
35 -25 13 -14 32 -25 43 -25 11 0 24 -7 29 -16 6 -11 27 -18 60 -22 32 -3 57
-11 68 -23 9 -11 28 -19 41 -19 14 0 36 -9 50 -20 14 -11 34 -20 45 -20 11 0
33 -13 49 -30 59 -58 133 -100 178 -100 63 0 81 13 81 60 0 29 -5 43 -20 52
-11 7 -20 19 -20 26 0 15 -45 62 -59 62 -6 0 -15 9 -21 20 -6 11 -17 20 -25
20 -8 0 -19 9 -25 20 -6 11 -17 20 -24 20 -7 0 -21 9 -31 20 -10 11 -24 20
-32 20 -7 0 -21 9 -30 20 -10 11 -23 20 -29 20 -6 0 -21 9 -34 20 -13 11 -34
23 -47 26 -13 4 -23 12 -23 19 0 8 -9 17 -21 20 -12 4 -30 16 -40 26 -10 10
-26 19 -34 19 -8 0 -19 9 -25 20 -6 11 -17 20 -25 20 -8 0 -15 7 -15 15 0 8
-9 20 -20 27 -18 12 -20 23 -19 118 0 73 3 98 9 83 5 -13 16 -23 25 -23 8 0
15 -7 15 -15 0 -19 167 -185 187 -185 3 0 18 -11 35 -25 16 -14 37 -25 46 -25
10 0 23 -9 30 -20 7 -11 19 -20 28 -20 9 0 27 -9 41 -20 14 -11 37 -20 50 -20
14 0 36 -9 50 -20 16 -13 41 -20 67 -20 23 0 52 -8 66 -17 21 -15 52 -19 181
-21 141 -3 161 -2 202 17 25 12 61 21 80 21 19 0 45 8 58 19 13 10 40 21 61
25 20 4 39 13 42 21 3 8 14 15 24 15 10 0 27 8 38 19 11 10 30 22 42 25 12 4
27 16 32 27 6 10 15 19 20 19 14 0 110 94 110 108 0 7 7 12 15 12 9 0 18 7 22
15 3 9 22 34 42 55 52 57 81 96 81 110 0 7 11 25 25 42 14 16 25 38 25 48 0
10 6 20 14 23 8 3 17 21 21 39 4 18 16 44 26 57 11 13 19 35 19 48 0 14 9 36
20 50 12 15 20 41 20 62 0 20 8 52 19 71 10 19 21 64 24 100 3 35 10 66 16 68
15 5 15 1349 1 1354 -5 2 -14 35 -19 75 -5 39 -16 82 -25 95 -10 14 -16 43
-16 77 0 33 -8 71 -19 95 -10 23 -21 63 -24 90 -3 28 -11 55 -19 60 -8 6 -17
28 -21 50 -3 21 -13 46 -20 55 -8 9 -18 30 -22 48 -3 17 -15 41 -26 54 -10 12
-19 30 -19 40 0 10 -6 22 -14 26 -7 4 -21 23 -30 41 -9 17 -21 32 -26 32 -6 0
-10 5 -10 11 0 14 -105 119 -119 119 -6 0 -11 4 -11 9 0 4 -21 24 -47 44 -27
20 -59 44 -72 54 -13 10 -31 25 -41 35 -10 9 -29 19 -42 23 -12 4 -31 16 -41
26 -10 11 -31 19 -49 19 -17 0 -40 8 -50 17 -13 11 -42 18 -86 21 -70 4 -97
18 -113 60 -10 25 -35 29 -58 8 -30 -26 -58 -29 -64 -6 -4 15 -13 20 -39 20
-43 0 -57 -10 -67 -46 -6 -25 -14 -30 -49 -35 -23 -3 -50 -13 -60 -22 -10 -9
-28 -17 -40 -17 -12 0 -31 -9 -41 -19 -10 -10 -33 -22 -51 -26 -17 -4 -34 -13
-36 -20 -3 -8 -19 -18 -35 -24 -16 -5 -29 -15 -29 -20 0 -6 -6 -11 -14 -11 -8
0 -27 -10 -43 -23 -15 -13 -36 -26 -45 -30 -10 -3 -18 -13 -18 -22 0 -8 -7
-15 -16 -15 -9 0 -27 -10 -39 -22 -12 -13 -43 -40 -69 -62 -50 -41 -166 -177
-166 -195 0 -6 -13 -11 -30 -11 -21 0 -30 5 -30 16 0 9 -9 18 -20 21 -11 3
-20 12 -20 19 0 8 -7 17 -15 20 -8 3 -31 21 -50 38 -20 18 -48 39 -62 47 -15
8 -35 21 -44 29 -47 42 -72 60 -83 60 -7 0 -21 9 -31 20 -10 11 -25 20 -34 20
-9 0 -24 9 -34 20 -9 11 -28 20 -41 20 -13 0 -29 7 -36 15 -7 8 -31 20 -54 25
-22 6 -54 18 -71 28 -25 14 -57 17 -185 17 -146 0 -158 2 -184 23 -16 12 -43
22 -60 22 -17 0 -40 7 -50 15 -15 11 -48 15 -122 15 -95 0 -104 2 -118 22 -9
13 -16 43 -16 70 0 33 -6 53 -19 65 -10 10 -21 34 -25 55 -4 20 -13 39 -21 42
-8 3 -15 14 -15 25 0 26 -57 91 -80 91 -10 0 -23 -7 -30 -15z m-843 -257 c-3
-8 -6 -5 -6 6 -1 11 2 17 5 13 3 -3 4 -12 1 -19z m-1449 -55 c7 -11 28 -18 68
-21 42 -3 63 -10 72 -23 7 -11 24 -19 37 -19 14 0 29 -8 35 -19 5 -11 23 -22
40 -26 16 -4 30 -13 30 -21 0 -8 11 -19 24 -23 13 -5 26 -17 29 -25 4 -9 13
-16 22 -16 8 0 15 -7 15 -16 0 -9 9 -18 20 -21 14 -4 20 -14 20 -34 0 -18 8
-34 20 -41 13 -9 20 -24 20 -46 0 -20 8 -39 20 -49 15 -13 20 -30 20 -64 0
-33 -5 -51 -20 -64 -12 -11 -20 -31 -20 -51 0 -24 -5 -34 -20 -39 -11 -3 -20
-14 -20 -24 0 -10 -9 -26 -20 -36 -11 -10 -20 -28 -20 -39 0 -12 -9 -25 -22
-31 -16 -7 -24 -20 -26 -43 -2 -18 -12 -42 -23 -53 -13 -13 -19 -33 -19 -60 0
-28 -6 -46 -17 -54 -15 -11 -18 -40 -24 -191 -4 -99 -5 -198 -2 -221 4 -26 1
-48 -6 -57 -9 -11 -9 -20 -2 -35 7 -11 11 -85 11 -179 0 -144 2 -162 20 -185
11 -14 20 -39 20 -55 0 -31 6 -49 40 -112 10 -19 17 -36 15 -38 -2 -2 -92 -3
-201 -2 -178 0 -200 3 -219 19 -11 11 -43 21 -74 24 -32 4 -58 13 -63 21 -5 8
-32 18 -63 21 -31 4 -59 14 -63 21 -5 8 -32 17 -63 21 -33 3 -61 13 -72 24
-10 11 -31 19 -47 19 -20 0 -30 5 -30 15 0 9 -13 18 -31 22 -17 3 -36 14 -42
24 -7 11 -19 19 -29 19 -9 0 -20 9 -23 20 -3 11 -13 20 -21 20 -8 0 -17 7 -21
15 -3 9 -20 22 -39 30 -20 8 -36 23 -39 37 -3 13 -4 223 -3 468 3 392 5 448
19 470 11 16 19 58 23 115 4 49 13 99 20 110 8 12 17 48 21 80 5 35 15 65 26
76 11 11 19 28 19 40 0 11 9 32 20 46 11 14 20 36 20 49 0 15 6 24 15 24 8 0
17 11 21 24 3 13 15 33 27 44 12 11 28 28 36 37 10 13 24 16 55 12 22 -3 33
-3 24 0 -10 2 -18 13 -18 24 0 15 7 19 35 19 24 0 39 6 47 20 12 19 24 20 200
20 164 0 188 -2 196 -17z m4940 -152 c36 -1 54 -6 58 -16 3 -8 26 -17 52 -21
28 -4 52 -14 60 -25 7 -11 22 -19 33 -19 10 0 19 -7 19 -15 0 -9 11 -20 25
-25 14 -5 25 -14 25 -19 0 -6 10 -16 23 -23 60 -34 87 -54 87 -65 0 -6 9 -15
20 -18 11 -3 20 -10 20 -14 0 -5 11 -20 25 -35 14 -15 28 -38 31 -51 3 -14 12
-25 20 -25 8 0 14 -7 14 -16 0 -9 9 -18 20 -21 15 -4 20 -14 20 -43 0 -24 7
-43 20 -55 12 -11 20 -31 20 -52 0 -19 8 -41 18 -51 11 -11 21 -41 25 -72 4
-29 13 -62 20 -74 8 -11 17 -57 21 -101 5 -51 13 -86 23 -98 10 -11 19 -44 22
-90 4 -44 13 -84 24 -100 16 -24 17 -71 17 -584 0 -514 -1 -561 -17 -583 -12
-16 -20 -54 -24 -106 -4 -50 -13 -91 -23 -107 -10 -14 -20 -51 -23 -82 -4 -33
-11 -59 -19 -62 -7 -3 -16 -21 -20 -41 -4 -21 -15 -48 -25 -61 -11 -13 -19
-33 -19 -45 0 -12 -9 -27 -20 -34 -12 -7 -20 -23 -20 -41 0 -20 -6 -30 -20
-34 -11 -3 -20 -14 -20 -25 0 -10 -9 -27 -20 -37 -11 -10 -20 -26 -20 -35 0
-9 -11 -22 -25 -28 -14 -6 -25 -18 -25 -27 0 -8 -6 -15 -14 -15 -8 0 -17 -9
-21 -19 -3 -10 -15 -21 -25 -24 -11 -3 -20 -12 -20 -21 0 -9 -7 -16 -16 -16
-9 0 -18 -9 -21 -20 -3 -11 -13 -20 -23 -20 -9 0 -25 -9 -34 -19 -10 -11 -28
-22 -42 -25 -13 -4 -24 -13 -24 -21 0 -10 -11 -15 -35 -15 -21 0 -43 -8 -55
-20 -12 -12 -40 -22 -72 -26 -29 -3 -64 -14 -78 -23 -36 -23 -240 -23 -266 0
-11 9 -46 20 -79 24 -32 4 -64 13 -70 21 -5 8 -28 17 -50 21 -22 3 -48 14 -58
24 -10 11 -27 19 -37 19 -11 0 -20 6 -20 14 0 15 -21 26 -50 26 -10 0 -20 9
-23 20 -3 11 -12 20 -21 20 -9 0 -16 8 -16 20 0 13 -7 20 -19 20 -10 0 -21 9
-24 20 -3 11 -12 20 -20 20 -9 0 -19 9 -22 20 -3 11 -13 20 -21 20 -8 0 -14 5
-14 10 0 6 -11 20 -25 32 -14 12 -25 28 -25 35 0 7 -7 13 -15 13 -8 0 -17 14
-21 36 -4 24 -13 38 -25 41 -13 4 -19 14 -19 34 0 18 -8 34 -20 41 -11 7 -20
22 -20 34 0 12 -9 33 -20 47 -11 14 -20 38 -20 55 0 16 -9 41 -20 55 -11 14
-20 36 -20 49 0 33 -19 98 -29 98 -5 0 -11 39 -15 87 -5 57 -14 99 -26 118
-15 25 -18 53 -20 170 0 77 -5 183 -10 236 -5 53 -7 112 -3 132 4 25 0 44 -11
61 -22 34 -24 320 -2 345 9 11 17 68 24 170 9 115 15 158 27 171 9 10 19 44
22 76 3 33 12 66 19 75 8 8 17 30 20 49 4 18 15 41 26 52 10 10 18 29 18 42 0
13 7 26 14 29 8 3 18 22 21 41 5 22 14 36 26 39 14 4 19 14 19 41 0 29 4 36
20 36 14 0 20 7 20 21 0 12 8 23 20 26 11 3 20 11 20 19 0 7 9 18 20 24 11 6
20 17 20 25 0 7 9 17 20 20 11 3 20 11 20 16 0 14 56 69 69 69 6 0 15 9 21 20
6 11 17 20 25 20 8 0 15 7 15 15 0 8 7 15 15 15 9 0 21 11 27 25 6 14 19 25
30 25 10 0 27 9 38 20 11 11 27 20 36 20 9 0 18 9 21 20 4 14 14 20 34 20 16
0 33 8 41 18 7 11 30 22 51 26 20 4 37 13 37 20 0 17 191 34 270 24 30 -3 79
-7 108 -7z m-3403 -114 c4 -32 15 -56 32 -73 24 -25 31 -26 87 -20 33 3 63 12
68 19 4 6 8 35 8 62 1 44 2 48 14 33 7 -10 18 -18 25 -18 6 0 11 -15 11 -34 0
-50 18 -63 82 -59 74 5 78 8 78 48 0 31 3 35 25 35 14 0 34 9 46 21 27 27 63
22 67 -11 2 -14 12 -33 23 -43 10 -10 19 -31 19 -48 0 -33 27 -49 85 -49 46 0
65 9 65 30 0 21 40 31 79 21 14 -4 40 -5 56 -2 29 6 30 9 33 62 l3 56 56 12
c113 22 258 7 301 -32 10 -9 30 -17 44 -17 14 0 32 -8 42 -19 18 -20 57 -18
91 5 12 9 49 14 100 14 67 0 82 -3 92 -19 7 -12 28 -20 59 -24 27 -3 51 -11
56 -20 4 -8 26 -18 48 -22 23 -4 40 -12 40 -20 0 -7 12 -18 28 -24 40 -15 85
-44 100 -63 7 -10 19 -18 26 -18 8 0 16 -9 19 -20 3 -14 14 -20 31 -20 15 0
29 -7 33 -16 3 -8 16 -20 29 -25 13 -4 24 -15 24 -24 0 -8 9 -15 20 -15 16 0
20 -7 20 -30 0 -19 7 -34 20 -42 25 -16 25 -30 0 -53 -12 -11 -20 -31 -20 -49
0 -20 -7 -36 -20 -44 -14 -8 -20 -23 -20 -46 0 -19 -8 -40 -19 -50 -11 -10
-21 -38 -25 -68 -4 -29 -14 -57 -23 -63 -11 -8 -16 -36 -20 -101 -4 -62 -10
-95 -22 -108 -14 -16 -16 -67 -16 -470 0 -398 2 -455 16 -476 12 -19 17 -60
21 -162 4 -101 10 -144 21 -161 9 -13 19 -56 23 -96 4 -46 13 -80 25 -95 12
-16 19 -40 19 -70 0 -35 4 -48 20 -56 15 -8 20 -21 20 -49 0 -25 7 -44 20 -56
11 -10 20 -28 20 -40 0 -12 9 -34 20 -48 11 -14 20 -28 20 -31 0 -3 -9 -15
-20 -26 -18 -18 -20 -33 -20 -170 l0 -150 -27 6 c-57 10 -56 20 -56 -403 -1
-382 0 -390 21 -432 15 -29 22 -59 22 -101 l0 -60 -36 0 c-27 0 -37 -5 -41
-19 -3 -11 -16 -22 -29 -25 -15 -4 -24 -14 -24 -25 0 -10 -9 -21 -20 -24 -15
-4 -20 -14 -20 -41 l0 -36 -176 0 c-161 0 -178 -2 -201 -20 -18 -14 -41 -20
-73 -20 -50 0 -60 9 -60 51 0 11 -8 32 -17 46 -16 24 -18 61 -21 328 -1 165
-4 309 -7 321 -5 24 -44 44 -84 44 -20 0 -30 6 -34 20 -5 18 -14 20 -81 20
-63 0 -80 -4 -96 -20 -23 -23 -24 -48 -20 -452 2 -240 2 -247 -19 -264 -12
-10 -21 -26 -21 -36 0 -11 -7 -18 -20 -18 -10 0 -24 -9 -30 -20 -9 -17 -21
-20 -90 -20 -67 0 -83 3 -100 20 -13 13 -33 20 -60 20 -29 0 -40 4 -40 15 0 9
-11 20 -25 25 -15 6 -25 17 -25 30 0 11 -9 29 -19 39 -18 18 -20 38 -23 273
-3 223 -5 257 -21 281 -16 24 -18 54 -18 262 l-1 234 -39 21 c-60 31 -89 26
-126 -20 -25 -30 -33 -48 -33 -79 0 -30 -4 -41 -15 -41 -16 0 -22 -20 -28 -99
-2 -29 -10 -57 -18 -61 -9 -6 -15 -54 -21 -177 -5 -113 -12 -176 -22 -193 -8
-14 -17 -52 -21 -85 -4 -32 -16 -73 -26 -90 -11 -16 -19 -46 -19 -66 0 -23 -7
-42 -20 -54 -11 -10 -20 -29 -20 -41 0 -13 -9 -29 -20 -36 -11 -7 -20 -21 -20
-31 0 -11 -9 -21 -20 -24 -11 -3 -20 -11 -20 -19 0 -8 -18 -15 -45 -20 -25 -3
-56 -15 -69 -25 -35 -28 -146 -27 -171 1 -10 11 -26 20 -37 20 -11 0 -18 7
-18 20 0 11 -7 20 -15 20 -9 0 -20 12 -26 27 -6 15 -19 36 -30 46 -12 12 -19
31 -19 56 0 23 -8 48 -20 64 -29 36 -29 218 -1 274 11 21 23 67 26 103 4 36
14 69 21 75 8 5 17 35 21 65 3 31 13 60 21 66 10 7 17 34 20 73 2 33 8 61 12
61 16 0 30 55 30 120 0 39 4 70 9 70 16 0 31 62 31 131 l0 69 31 0 c19 0 37
-7 45 -17 11 -16 36 -18 206 -21 180 -4 195 -2 216 16 12 11 41 22 64 26 24 4
47 15 55 26 8 11 23 20 33 20 10 0 25 7 34 15 8 8 26 19 40 25 14 5 26 16 26
25 0 10 10 15 30 15 19 0 34 7 42 20 7 11 24 20 38 20 45 0 55 15 55 75 0 70
-16 85 -91 85 -40 0 -56 -4 -66 -19 -7 -10 -28 -22 -46 -25 -17 -4 -32 -13
-32 -20 0 -7 -18 -18 -39 -25 -21 -6 -42 -18 -45 -26 -3 -8 -14 -15 -24 -15
-10 0 -27 -9 -37 -20 -11 -12 -31 -20 -51 -20 -23 0 -38 -6 -46 -20 -12 -18
-24 -20 -122 -20 -89 0 -113 3 -128 17 -12 10 -42 18 -81 21 -44 3 -66 10 -74
22 -7 10 -26 20 -44 24 -25 5 -30 10 -26 26 4 16 0 20 -19 20 -13 0 -24 5 -24
10 0 6 -11 16 -25 22 -14 6 -25 17 -25 24 0 7 -9 16 -20 19 -11 3 -20 12 -20
20 0 7 -10 15 -23 19 -12 3 -32 14 -44 26 -12 11 -29 20 -38 20 -8 0 -15 7
-15 15 0 9 -10 20 -22 25 -18 7 -8 9 39 9 52 1 64 -2 73 -19 8 -15 21 -20 50
-20 28 0 40 -4 40 -14 0 -18 22 -26 72 -26 29 0 45 -6 58 -22 18 -23 21 -23
236 -21 204 1 218 2 233 21 11 13 33 21 65 25 29 3 52 11 57 20 5 8 25 18 44
21 20 4 39 14 42 22 3 7 14 14 25 14 11 0 22 8 25 20 3 11 14 20 25 20 10 0
30 11 44 25 14 14 31 25 38 25 12 0 26 41 26 77 0 8 -15 27 -32 44 -39 35 -86
39 -113 9 -10 -11 -24 -20 -31 -20 -7 0 -18 -9 -24 -20 -6 -11 -20 -20 -30
-20 -11 0 -29 -9 -40 -20 -11 -11 -28 -20 -38 -20 -11 0 -27 -9 -37 -20 -11
-12 -31 -20 -49 -20 -17 0 -48 -9 -69 -20 -32 -17 -56 -20 -169 -20 -101 1
-138 4 -152 15 -11 8 -29 15 -40 16 -12 0 4 6 35 13 31 6 64 20 73 29 10 9 28
17 42 17 13 0 29 9 36 20 7 11 20 20 30 20 9 0 23 8 30 18 7 10 25 22 41 26
15 3 27 13 27 21 0 9 9 15 21 15 12 0 23 8 26 20 3 11 14 20 25 20 10 0 29 11
42 25 13 14 28 25 34 25 6 0 16 9 22 19 6 12 23 21 42 23 25 2 33 9 41 33 5
17 16 38 24 47 21 23 20 105 0 125 -13 13 -21 14 -39 5 -13 -6 -38 -14 -55
-17 -18 -4 -33 -11 -33 -16 0 -5 -11 -15 -25 -21 -14 -6 -25 -17 -25 -24 0 -7
-18 -19 -40 -25 -22 -7 -40 -18 -40 -26 0 -7 -9 -13 -19 -13 -11 0 -23 -9 -26
-20 -3 -11 -15 -20 -26 -20 -12 0 -19 -7 -19 -20 0 -14 -7 -20 -24 -20 -35 0
-56 -10 -56 -26 0 -8 -6 -14 -13 -14 -8 0 -22 -8 -31 -19 -9 -10 -31 -21 -47
-25 -17 -3 -42 -15 -56 -26 -18 -14 -41 -20 -73 -20 -30 0 -52 -6 -60 -15 -12
-14 -15 -13 -32 4 -14 16 -26 19 -51 14 -44 -8 -57 -20 -57 -54 0 -28 -2 -29
-46 -29 -31 0 -54 7 -71 20 -18 14 -41 20 -76 20 -33 0 -61 7 -83 20 -51 32
-156 28 -196 -8 -21 -18 -24 -68 -4 -75 21 -8 27 -57 7 -64 -9 -3 -24 -13 -34
-21 -14 -13 -58 -15 -257 -15 -216 0 -242 1 -259 17 -13 12 -43 20 -87 24 -46
3 -73 11 -85 23 -14 14 -34 19 -72 19 -41 0 -58 5 -72 20 -13 14 -31 20 -60
20 -29 0 -47 6 -60 20 -10 11 -28 20 -41 20 -33 0 -54 10 -54 26 0 8 -9 14
-20 14 -10 0 -24 9 -30 19 -5 11 -23 22 -40 26 -16 4 -30 13 -30 20 0 8 -10
17 -22 21 -13 4 -29 15 -36 25 -7 11 -22 19 -33 19 -10 0 -27 9 -36 20 -11 12
-30 20 -49 20 -23 0 -33 5 -37 20 -4 15 -14 20 -40 20 -26 0 -36 5 -40 20 -3
12 -14 20 -25 20 -12 0 -23 9 -27 20 -3 11 -13 20 -21 20 -8 0 -14 9 -14 21 0
12 -8 23 -20 26 -11 3 -20 12 -20 20 0 8 -9 17 -19 20 -11 3 -21 13 -24 24 -4
13 -14 19 -35 19 -17 0 -37 9 -48 21 -17 18 -28 20 -91 17 -68 -3 -72 -2 -78
19 -3 13 -12 23 -20 23 -8 0 -15 7 -15 15 0 9 -11 20 -25 25 -14 5 -25 16 -25
25 0 25 -64 23 -95 -4 -11 -10 -28 -21 -37 -24 -15 -5 -18 -19 -18 -85 0 -66
3 -82 20 -97 11 -10 20 -31 20 -47 0 -21 6 -31 20 -35 28 -7 28 -59 0 -66 -11
-3 -20 -12 -20 -21 0 -9 -5 -16 -11 -16 -18 0 -68 -56 -75 -84 -3 -14 -12 -30
-19 -34 -6 -4 -17 -16 -23 -27 -9 -16 -11 -17 -12 -4 0 9 -9 19 -20 22 -11 3
-20 12 -20 20 0 8 -12 18 -27 22 -15 3 -33 15 -41 26 -7 10 -22 19 -33 19 -11
0 -19 7 -19 16 0 9 -9 18 -20 21 -11 3 -20 11 -20 19 0 7 -8 18 -19 23 -10 6
-22 23 -26 38 -3 16 -15 36 -26 46 -10 10 -19 29 -19 42 0 14 -8 29 -20 35
-19 10 -20 21 -20 160 0 139 1 150 20 160 13 7 20 21 20 40 0 20 6 31 20 35
11 3 20 13 20 22 0 8 9 17 20 20 11 3 20 11 20 18 0 7 12 16 28 20 15 4 35 15
45 26 12 12 31 19 56 19 23 0 48 8 64 20 22 18 40 20 150 20 117 0 126 -1 132
-20 4 -13 15 -20 30 -20 34 0 55 -10 55 -26 0 -8 16 -16 40 -20 26 -4 40 -12
40 -21 0 -8 9 -17 19 -20 11 -3 21 -13 24 -24 3 -10 14 -19 25 -19 10 0 27 -9
37 -20 10 -11 27 -20 37 -20 11 0 22 -9 25 -20 3 -11 14 -20 24 -20 11 0 19
-7 19 -15 0 -9 8 -19 18 -22 9 -4 30 -17 45 -30 16 -13 33 -23 37 -23 5 0 25
-16 45 -36 22 -21 49 -38 69 -41 22 -3 36 -12 39 -24 4 -14 14 -19 39 -19 22
0 37 -6 46 -20 9 -16 23 -20 62 -20 38 0 52 -4 59 -19 7 -13 25 -20 62 -23 32
-3 55 -11 60 -20 5 -10 31 -18 66 -23 32 -4 66 -14 76 -23 12 -11 50 -18 132
-23 62 -4 133 -14 157 -20 25 -8 101 -13 184 -14 122 0 145 3 161 18 11 9 35
17 54 17 40 0 100 16 108 29 3 5 83 12 177 16 l172 7 4 -93 c3 -90 5 -95 36
-128 27 -28 40 -34 75 -34 23 0 53 5 66 12 21 12 23 18 19 63 -4 33 -11 54
-22 60 -13 7 -16 26 -16 91 0 71 3 84 20 95 11 7 20 20 20 30 0 10 7 4 16 -15
9 -18 20 -33 25 -33 5 0 9 -10 9 -22 0 -58 9 -68 61 -68 27 0 49 5 49 10 0 6
11 16 25 22 22 10 25 17 25 63 0 38 -6 60 -21 79 -19 24 -19 26 -2 26 10 0 24
9 31 20 29 46 51 7 52 -90 0 -19 7 -48 15 -64 8 -15 15 -41 15 -56 0 -41 26
-63 64 -56 17 4 38 15 46 25 8 10 23 21 33 25 17 5 18 17 16 123 -3 97 -6 120
-21 132 -10 9 -18 29 -18 45 0 20 -11 39 -35 62 -34 34 -35 34 -129 34 -85 0
-97 -2 -108 -20 -7 -11 -21 -20 -31 -20 -11 0 -21 -9 -24 -20 -4 -16 -13 -20
-47 -19 -22 1 -31 4 -20 6 12 2 30 13 40 24 9 10 23 19 31 19 7 0 18 11 23 24
5 13 18 27 29 31 15 4 21 15 21 35 0 19 6 29 20 33 12 3 20 14 20 26 0 12 6
21 14 21 22 0 30 19 27 68 -2 34 3 49 18 64 18 16 21 31 21 103 0 72 -3 88
-20 105 -13 13 -20 33 -20 59 0 49 -8 71 -26 71 -8 0 -14 6 -14 14 0 19 41 8
58 -16 8 -11 26 -18 48 -18 22 0 37 -6 40 -15 4 -8 24 -18 45 -21 21 -4 36
-11 33 -16 -10 -16 -13 -118 -7 -231 5 -84 10 -112 24 -129 11 -11 19 -36 19
-53 0 -18 9 -44 20 -58 11 -14 20 -32 20 -41 0 -9 9 -25 19 -35 10 -10 22 -28
26 -40 3 -12 12 -21 20 -21 7 0 15 -9 18 -21 3 -11 15 -23 26 -26 12 -3 21
-11 21 -18 0 -8 18 -16 42 -20 23 -4 48 -14 56 -21 19 -20 131 -19 138 1 4 10
20 15 50 15 30 0 50 6 63 19 10 10 35 21 55 25 22 4 36 13 36 22 0 8 11 19 25
24 14 5 25 16 25 25 0 8 7 15 16 15 9 0 18 9 21 19 3 11 13 21 24 24 13 4 19
14 19 35 0 20 7 36 20 45 19 14 21 25 20 212 0 185 -1 200 -20 220 -11 12 -20
31 -20 43 0 12 -9 31 -19 41 -10 10 -22 28 -26 40 -3 12 -15 21 -25 21 -9 0
-20 9 -23 20 -4 17 -14 20 -60 20 -46 0 -55 3 -60 20 -4 15 -14 20 -40 20 -27
0 -37 5 -42 20 -3 11 -12 20 -20 20 -7 0 -16 15 -19 34 -4 19 -13 39 -20 45
-8 7 -17 27 -20 46 -4 19 -14 38 -22 43 -9 5 -17 27 -20 53 -4 38 -3 41 7 22
10 -20 20 -23 69 -23 49 0 58 -3 63 -20 4 -15 14 -20 41 -20 29 0 36 -4 36
-20 0 -13 7 -20 20 -20 10 0 24 -9 29 -19 6 -10 24 -24 41 -29 16 -6 30 -15
30 -21 0 -5 9 -13 21 -16 12 -4 30 -16 40 -26 10 -10 33 -19 49 -19 19 0 30
-5 30 -14 0 -32 83 -36 102 -6 7 11 20 20 29 20 31 0 65 62 52 95 -2 8 -19 17
-36 21 -18 3 -44 15 -59 25 -14 11 -43 19 -63 19 -28 0 -38 5 -42 20 -3 11
-14 20 -24 20 -11 0 -19 6 -19 14 0 8 -10 18 -22 22 -13 4 -36 17 -51 30 -16
13 -35 24 -43 24 -8 0 -14 7 -14 15 0 10 -14 17 -40 21 -24 4 -40 12 -40 20 0
20 -34 25 -140 22 l-95 -3 -5 -44 -5 -43 -19 21 c-27 30 -67 27 -105 -9 -27
-26 -31 -37 -31 -82 0 -29 6 -58 14 -67 7 -9 16 -39 19 -68 l6 -52 -30 11
c-16 5 -29 14 -29 18 0 5 -9 12 -20 15 -11 3 -20 14 -20 23 0 9 -12 29 -25 45
-22 25 -30 27 -93 27 -77 0 -82 -4 -82 -65 0 -21 8 -41 19 -52 11 -10 23 -31
26 -46 4 -16 17 -32 29 -37 16 -7 10 -9 -27 -9 -39 -1 -50 3 -53 17 -3 9 -23
27 -45 40 -25 14 -39 30 -39 43 0 11 -8 23 -17 26 -10 4 -24 15 -31 25 -17 23
-75 24 -97 1 -14 -13 -16 -31 -13 -85 4 -71 -1 -83 -17 -45 -7 16 -19 22 -44
23 -19 1 -37 8 -42 16 -5 10 -31 18 -66 23 -32 4 -68 16 -82 26 -13 10 -30 19
-38 19 -7 0 -16 7 -19 15 -4 8 -12 15 -20 15 -8 0 -14 9 -14 19 0 11 -9 23
-20 26 -25 8 -28 55 -4 55 9 0 18 9 21 20 3 13 14 20 28 20 14 0 25 7 27 18
10 36 188 39 216 4 10 -13 36 -17 116 -20 98 -4 104 -3 129 21 22 20 27 33 27
75 0 60 -4 62 -103 62 -61 0 -74 3 -85 20 -8 14 -23 20 -46 20 l-34 0 28 28
c25 25 29 38 35 115 4 48 11 87 15 87 4 0 11 10 17 23 10 21 10 21 17 -9 11
-50 35 -66 97 -62 51 3 54 4 60 36 4 18 14 41 23 51 9 10 16 28 17 42 1 31 6
16 14 -44z m-417 -131 c2 -22 13 -51 24 -65 l20 -26 -52 -5 c-34 -4 -55 -11
-61 -23 -7 -12 -23 -17 -59 -17 -39 0 -53 -4 -62 -20 -7 -11 -21 -20 -32 -20
-10 0 -30 -12 -44 -27 l-26 -28 -6 25 c-4 17 -15 27 -35 31 l-30 7 28 1 c19 1
31 7 34 20 3 11 13 21 24 24 10 3 19 12 19 20 0 8 9 17 20 20 11 3 20 14 20
25 0 11 16 31 40 47 22 15 40 31 40 36 0 12 30 17 85 16 l50 -2 3 -39z m-429
-196 c19 0 12 -17 -9 -23 -18 -5 -20 -14 -20 -106 0 -89 2 -103 20 -118 11
-10 20 -26 20 -36 0 -9 6 -20 14 -23 8 -3 20 -20 27 -37 7 -18 19 -36 26 -42
14 -12 35 -95 23 -95 -4 0 -10 9 -13 20 -3 12 -14 20 -26 20 -15 0 -21 6 -21
23 0 12 -9 30 -20 40 -12 10 -20 29 -20 46 0 39 -9 61 -26 61 -8 0 -14 7 -14
15 0 28 -31 65 -55 65 -39 0 -42 80 -4 101 12 6 19 21 19 39 0 15 10 40 23 54
19 22 24 23 33 11 6 -8 16 -15 23 -15z m-211 -393 c10 -3 5 -5 -10 -6 -25 -1
-28 2 -27 32 l1 32 9 -27 c6 -15 18 -29 27 -31z m54 -62 c3 -14 1 -25 -3 -25
-5 0 -9 11 -9 25 0 14 2 25 4 25 2 0 6 -11 8 -25z m478 -35 c11 -11 29 -20 40
-20 18 0 15 -5 -14 -31 -19 -16 -38 -40 -42 -52 -4 -12 -13 -26 -21 -32 -7 -6
-18 -42 -23 -80 -5 -39 -12 -87 -16 -108 -4 -22 -2 -49 4 -60 6 -12 13 -44 15
-71 3 -30 12 -55 21 -61 9 -7 16 -17 16 -23 0 -14 61 -72 76 -72 7 0 14 -7 18
-15 3 -8 12 -15 21 -15 8 0 15 -4 15 -9 0 -11 -98 -21 -148 -14 -22 3 -52 16
-67 29 -16 13 -32 24 -37 24 -4 0 -8 6 -8 14 0 7 -9 24 -19 38 -11 13 -22 38
-26 54 -3 16 -13 55 -22 87 -14 49 -14 64 -4 105 8 26 15 73 18 105 4 50 7 57
26 57 37 0 67 12 67 25 0 7 9 15 20 18 11 3 20 14 20 25 0 11 7 25 15 32 8 7
15 25 15 41 0 34 12 37 40 9z m657 14 c-3 -3 -12 -4 -19 -1 -8 3 -5 6 6 6 11
1 17 -2 13 -5z m-1218 -164 c20 0 34 -7 41 -20 9 -17 21 -20 90 -20 63 0 80
-3 80 -15 0 -7 -8 -18 -17 -24 -15 -8 -18 -26 -20 -115 -2 -96 0 -107 17 -116
16 -8 20 -21 20 -60 0 -58 7 -80 26 -80 8 0 14 -10 14 -25 0 -14 8 -33 18 -43
10 -10 22 -26 25 -36 4 -10 16 -20 26 -23 11 -3 21 -13 24 -23 2 -9 16 -20 31
-24 15 -4 35 -15 46 -26 21 -21 77 -27 184 -21 l48 3 -38 -40 c-36 -37 -40
-39 -56 -24 -27 23 -190 17 -208 -8 -6 -8 -215 -26 -249 -22 -13 2 -25 12 -28
22 -3 10 -13 20 -24 23 -10 3 -19 14 -19 25 0 10 -9 29 -20 42 -14 16 -20 37
-20 70 0 32 -6 55 -20 73 -19 24 -20 40 -19 289 0 167 4 255 9 241 7 -17 18
-23 39 -23z m1501 15 c0 -14 -8 -38 -17 -52 -25 -39 -26 -247 0 -286 9 -14 17
-44 17 -65 0 -24 8 -49 19 -64 11 -13 23 -36 26 -51 4 -14 13 -28 21 -31 17
-7 19 -46 2 -46 -52 0 -158 73 -158 108 0 5 -8 20 -19 33 -10 13 -22 40 -26
59 -4 19 -14 46 -23 60 -12 18 -18 56 -20 133 l-4 107 40 38 c22 20 45 47 51
60 9 17 20 22 51 22 36 0 40 -2 40 -25z m-770 -21 c0 -2 -9 -4 -21 -4 -11 0
-18 4 -14 10 5 8 35 3 35 -6z m978 -100 c2 -16 -3 -23 -23 -26 -30 -6 -39 4
-30 33 9 27 49 22 53 -7z m-3195 -892 c15 -2 27 -10 27 -17 0 -6 8 -19 19 -29
35 -32 39 -256 4 -256 -8 0 -17 -8 -20 -19 -3 -13 -18 -21 -46 -25 -54 -9 -49
-9 -139 0 -62 5 -77 10 -81 25 -3 11 -12 19 -21 19 -31 0 -17 44 29 92 25 26
45 56 45 68 0 11 6 20 14 20 16 0 26 30 26 83 0 34 2 37 28 37 15 0 34 5 42
10 8 5 22 7 30 3 8 -3 27 -8 43 -11z m370 -273 c4 -13 14 -19 35 -19 22 0 32
-6 37 -20 3 -11 15 -20 26 -20 10 0 19 -7 19 -15 0 -9 12 -20 27 -26 14 -5 32
-17 38 -26 7 -9 22 -18 34 -20 11 -1 30 -12 41 -23 11 -11 31 -20 43 -20 13 0
32 -9 42 -20 13 -15 31 -20 67 -20 34 0 48 -4 48 -14 0 -16 30 -26 86 -26 28
0 47 -6 59 -20 14 -16 31 -20 79 -20 49 0 64 -4 73 -18 9 -15 29 -20 105 -25
53 -4 107 -13 124 -22 39 -20 178 -20 218 0 16 9 71 18 130 21 72 5 111 12
134 25 40 23 112 26 112 5 0 -8 12 -19 28 -25 34 -14 94 -58 105 -77 4 -8 15
-14 22 -14 8 0 15 -9 15 -20 0 -12 5 -17 13 -14 7 2 23 -7 35 -21 12 -14 26
-25 30 -25 5 0 14 -11 20 -25 11 -24 10 -25 -19 -25 -22 0 -32 -5 -36 -20 -3
-12 -14 -20 -28 -20 -12 0 -30 -9 -40 -20 -10 -11 -26 -20 -35 -20 -9 0 -26
-9 -38 -20 -12 -11 -35 -20 -52 -20 -16 0 -39 -9 -50 -20 -11 -11 -40 -22 -72
-26 -29 -4 -61 -14 -72 -23 -13 -11 -47 -18 -115 -22 -60 -4 -108 -12 -128
-22 -50 -27 -314 -24 -383 3 -30 12 -74 20 -110 20 -39 0 -64 5 -74 15 -19 19
-60 35 -92 35 -13 0 -24 4 -24 9 0 5 -16 15 -36 21 -20 7 -45 21 -55 31 -11
11 -30 19 -44 19 -18 0 -25 5 -25 20 0 14 -7 20 -21 20 -17 0 -20 5 -17 23 4
20 1 23 -24 19 -23 -4 -28 -1 -28 17 0 12 -6 21 -14 21 -8 0 -17 9 -21 19 -3
10 -15 21 -25 24 -11 3 -20 12 -20 20 0 8 -9 17 -20 20 -12 3 -20 14 -20 26 0
12 -9 30 -20 41 -11 11 -20 27 -20 35 0 8 -9 19 -20 25 -14 7 -20 21 -20 44 0
20 -8 40 -19 50 -12 11 -21 38 -26 71 -3 29 -13 59 -21 66 -9 7 -14 30 -14 64
0 50 1 52 24 48 13 -3 26 -14 29 -24z m-1273 -534 c10 -9 37 -19 61 -24 l44
-8 -42 -12 c-24 -6 -43 -16 -43 -21 0 -6 -13 -10 -29 -10 -30 0 -40 20 -33 68
4 26 19 28 42 7z"/>
<path d="M4680 4719 c0 -5 5 -7 10 -4 6 3 10 8 10 11 0 2 -4 4 -10 4 -5 0 -10
-5 -10 -11z"/>
</g>
</svg>
