<?xml version="1.0" standalone="no"?>
<!DOCTYPE svg PUBLIC "-//W3C//DTD SVG 20010904//EN"
 "http://www.w3.org/TR/2001/REC-SVG-20010904/DTD/svg10.dtd">
<svg version="1.0" xmlns="http://www.w3.org/2000/svg"
 width="1920.000000pt" height="1920.000000pt" viewBox="0 0 1920.000000 1920.000000"
 preserveAspectRatio="xMidYMid meet">
<metadata>
Created by potrace 1.11, written by Peter Selinger 2001-2013
</metadata>
<g transform="translate(0.000000,1920.000000) scale(0.100000,-0.100000)"
fill="#000000" stroke="none">
<path d="M12602 14770 c-57 -8 -82 -12 -165 -27 -42 -7 -239 -62 -262 -73 -11
-5 -49 -21 -85 -36 -79 -32 -204 -96 -208 -106 -2 -5 -8 -8 -13 -8 -8 0 -74
-40 -104 -63 -5 -4 -40 -30 -77 -57 -63 -47 -244 -221 -297 -286 -13 -16 -47
-63 -75 -104 -28 -41 -57 -80 -63 -88 -7 -7 -13 -19 -13 -27 0 -7 -4 -15 -8
-17 -14 -5 -98 -180 -137 -283 -29 -77 -73 -237 -90 -324 -26 -138 -27 -452
-1 -600 10 -57 26 -136 37 -175 11 -39 21 -79 24 -89 21 -91 188 -433 217
-445 4 -2 8 -8 8 -12 0 -8 64 -96 115 -160 39 -48 191 -197 245 -241 30 -24
57 -47 58 -51 2 -5 7 -8 11 -8 5 0 46 -25 92 -57 139 -93 427 -219 548 -239
14 -3 32 -7 40 -10 8 -2 30 -7 50 -10 20 -3 61 -10 91 -15 79 -15 362 -20 450
-9 136 18 172 25 290 56 102 27 315 108 341 130 8 8 20 14 24 14 9 0 167 94
190 112 6 5 42 32 80 60 100 75 279 260 353 364 34 49 69 98 77 109 8 10 15
25 15 31 0 7 3 14 8 16 10 4 74 129 106 208 15 36 31 74 36 85 12 26 66 219
75 270 5 22 9 47 11 55 26 142 26 473 -1 600 -3 14 -8 39 -11 55 -3 17 -14 64
-25 105 -11 41 -22 86 -25 99 -3 13 -12 37 -20 52 -8 16 -15 31 -15 34 -2 46
-153 331 -226 425 -91 118 -216 252 -306 327 -57 48 -176 133 -186 133 -6 0
-11 5 -11 10 0 6 -5 10 -10 10 -6 0 -37 16 -68 36 -31 21 -57 36 -57 35 0 -2
-29 11 -65 27 -76 35 -191 81 -217 87 -10 2 -52 13 -93 24 -41 11 -93 23 -115
27 -22 3 -62 10 -90 16 -66 13 -373 18 -453 8z m318 -505 c187 -22 428 -105
554 -190 20 -14 40 -25 44 -25 4 0 21 -13 37 -28 17 -15 45 -38 64 -52 50 -35
150 -136 208 -210 116 -148 198 -318 248 -509 16 -61 19 -79 31 -186 22 -190
-15 -401 -110 -623 -76 -178 -221 -368 -371 -487 -27 -22 -58 -47 -67 -55 -63
-56 -266 -154 -413 -199 -143 -44 -356 -65 -470 -47 -285 46 -486 130 -680
285 -214 171 -351 369 -439 631 -85 253 -89 501 -14 738 12 37 22 69 23 72 58
193 248 464 412 587 21 15 49 38 61 49 41 37 180 115 268 150 220 89 422 121
614 99z"/>
<path d="M13635 13251 c-47 -12 -87 -36 -121 -73 -52 -55 -68 -95 -68 -173 0
-102 48 -180 139 -228 56 -29 165 -29 220 0 92 48 139 126 139 228 0 101 -48
181 -136 226 -42 21 -129 32 -173 20z"/>
<path d="M6109 14715 c-2 -1 -34 -6 -70 -9 -54 -6 -125 -20 -299 -61 -20 -4
-165 -59 -212 -79 -21 -9 -39 -16 -40 -15 -2 1 -27 -13 -56 -30 -29 -17 -55
-31 -58 -31 -7 0 -175 -110 -206 -134 -14 -11 -41 -32 -59 -46 -64 -48 -226
-215 -291 -301 -59 -77 -172 -253 -174 -268 0 -3 -17 -42 -38 -85 -114 -241
-167 -499 -161 -796 6 -329 77 -582 248 -886 76 -135 274 -368 402 -474 37
-30 192 -140 225 -159 194 -114 453 -209 640 -236 25 -4 64 -10 88 -15 75 -14
408 -5 512 14 120 22 273 66 370 106 41 17 80 32 85 33 37 8 315 174 315 189
0 4 5 8 11 8 27 0 303 263 353 336 11 17 46 67 75 110 73 105 160 276 204 399
32 93 76 270 92 375 14 88 13 383 -1 485 -111 793 -714 1413 -1509 1551 -78
14 -436 29 -446 19z m346 -521 c315 -53 624 -234 820 -479 22 -27 43 -51 47
-53 5 -2 8 -8 8 -14 0 -5 11 -24 23 -41 34 -46 93 -155 112 -207 64 -176 84
-253 102 -390 24 -180 -29 -461 -124 -658 -30 -62 -93 -174 -102 -182 -3 -3
-26 -32 -51 -65 -61 -80 -151 -169 -253 -249 -47 -36 -87 -66 -90 -66 -3 0
-32 -15 -64 -34 -107 -63 -318 -136 -432 -151 -30 -4 -63 -9 -75 -11 -47 -11
-217 -5 -306 11 -121 21 -312 85 -412 139 -272 146 -494 390 -605 663 -39 97
-78 229 -87 293 -3 25 -9 70 -14 100 -11 75 -6 185 12 286 2 11 6 37 10 59 12
69 76 246 123 342 72 145 223 332 338 418 22 16 47 37 55 46 29 30 189 120
284 159 53 21 96 37 96 35 0 -2 15 2 33 10 43 18 167 43 253 51 38 4 70 8 72
9 7 6 142 -7 227 -21z"/>
<path d="M7028 13115 c-50 -13 -62 -21 -118 -76 -105 -103 -82 -294 46 -380
45 -30 112 -49 152 -43 92 14 106 20 169 83 82 81 93 211 26 312 -28 43 -83
88 -113 94 -11 2 -24 6 -29 9 -19 12 -89 13 -133 1z"/>
<path d="M9606 11667 c-87 -157 -212 -259 -441 -358 -11 -5 -49 -15 -85 -22
l-65 -13 0 -184 0 -185 228 -3 227 -2 0 -1370 0 -1370 270 0 270 0 0 1780 0
1780 -187 0 -188 0 -29 -53z"/>
<path d="M9265 7578 c-88 -5 -209 -18 -270 -29 -224 -41 -493 -124 -558 -172
-17 -14 -58 -37 -91 -53 -68 -33 -78 -50 -45 -75 l24 -19 -51 0 c-28 0 -144
-9 -259 -21 -171 -17 -209 -18 -216 -7 -11 17 -188 13 -319 -8 -301 -47 -1038
-209 -1345 -295 -354 -98 -866 -270 -1145 -384 -445 -181 -863 -387 -877 -432
-3 -7 10 -13 34 -15 l38 -3 -3 -60 c-3 -57 -2 -62 30 -91 35 -33 126 -88 244
-147 38 -19 118 -65 177 -100 113 -69 262 -136 431 -194 110 -38 156 -61 156
-78 0 -6 -22 -21 -50 -32 -91 -39 -70 -56 161 -131 543 -177 1357 -364 1946
-446 222 -32 273 -33 280 -8 4 17 9 17 124 0 66 -9 184 -24 262 -33 78 -9 162
-22 187 -30 54 -17 233 -40 430 -56 222 -17 1323 -23 1664 -10 594 24 949 62
1048 112 21 11 46 19 57 19 27 0 392 67 417 77 15 6 14 1 -9 -26 -38 -46 -31
-57 34 -53 66 4 435 70 659 118 467 100 1298 319 1620 427 116 39 127 57 51
89 -28 12 -51 27 -51 34 0 22 139 85 333 149 186 61 387 148 527 227 36 20
109 78 163 130 104 100 114 121 82 178 -11 21 -11 27 1 41 13 14 12 19 -6 41
-96 122 -870 436 -1645 666 -447 133 -563 161 -1085 257 -608 112 -636 115
-904 114 -292 -2 -278 -3 -411 6 -111 7 -117 8 -92 21 15 8 27 18 27 23 0 14
-44 39 -127 72 -43 17 -85 37 -93 44 -22 19 -80 42 -197 75 -183 54 -337 81
-513 90 -202 11 -629 10 -845 -2z"/>
</g>
</svg>
